<mxfile host="app.diagrams.net" agent="Mozilla/5.0 (Windows NT 10.0; Win64; x64) AppleWebKit/537.36 (KHTML, like Gecko) Chrome/133.0.0.0 Safari/537.36 Edg/133.0.0.0" version="26.0.16">
  <diagram name="第 1 页" id="hgsSoUVqsiGdDZqD00t-">
    <mxGraphModel dx="663" dy="1067" grid="1" gridSize="10" guides="1" tooltips="1" connect="1" arrows="1" fold="1" page="1" pageScale="1" pageWidth="827" pageHeight="1169" math="0" shadow="0">
      <root>
        <mxCell id="0" />
        <mxCell id="1" parent="0" />
        <mxCell id="KRBgAvv1zdZQbNrioahp-23" style="edgeStyle=orthogonalEdgeStyle;rounded=0;orthogonalLoop=1;jettySize=auto;html=1;exitX=0.5;exitY=1;exitDx=0;exitDy=0;" edge="1" parent="1" source="KRBgAvv1zdZQbNrioahp-1">
          <mxGeometry relative="1" as="geometry">
            <mxPoint x="414.1428571428571" y="140" as="targetPoint" />
          </mxGeometry>
        </mxCell>
        <mxCell id="KRBgAvv1zdZQbNrioahp-1" value="&lt;font style=&quot;font-size: 16px;&quot;&gt;开始&lt;/font&gt;" style="rounded=1;whiteSpace=wrap;html=1;" vertex="1" parent="1">
          <mxGeometry x="367" y="60" width="94" height="40" as="geometry" />
        </mxCell>
        <mxCell id="KRBgAvv1zdZQbNrioahp-22" style="edgeStyle=orthogonalEdgeStyle;rounded=0;orthogonalLoop=1;jettySize=auto;html=1;exitX=0.5;exitY=1;exitDx=0;exitDy=0;entryX=0.5;entryY=0;entryDx=0;entryDy=0;" edge="1" parent="1" source="KRBgAvv1zdZQbNrioahp-2" target="KRBgAvv1zdZQbNrioahp-3">
          <mxGeometry relative="1" as="geometry" />
        </mxCell>
        <mxCell id="KRBgAvv1zdZQbNrioahp-2" value="&lt;font style=&quot;font-size: 16px;&quot;&gt;使用Perf分析&lt;br&gt;JMH测试用例&lt;/font&gt;" style="rounded=0;whiteSpace=wrap;html=1;" vertex="1" parent="1">
          <mxGeometry x="354" y="140" width="120" height="60" as="geometry" />
        </mxCell>
        <mxCell id="KRBgAvv1zdZQbNrioahp-21" style="edgeStyle=orthogonalEdgeStyle;rounded=0;orthogonalLoop=1;jettySize=auto;html=1;exitX=0.5;exitY=1;exitDx=0;exitDy=0;entryX=0.5;entryY=0;entryDx=0;entryDy=0;" edge="1" parent="1" source="KRBgAvv1zdZQbNrioahp-3" target="KRBgAvv1zdZQbNrioahp-4">
          <mxGeometry relative="1" as="geometry" />
        </mxCell>
        <mxCell id="KRBgAvv1zdZQbNrioahp-24" style="edgeStyle=orthogonalEdgeStyle;rounded=0;orthogonalLoop=1;jettySize=auto;html=1;exitX=1;exitY=0.5;exitDx=0;exitDy=0;entryX=1;entryY=0.5;entryDx=0;entryDy=0;" edge="1" parent="1" source="KRBgAvv1zdZQbNrioahp-3" target="KRBgAvv1zdZQbNrioahp-13">
          <mxGeometry relative="1" as="geometry">
            <Array as="points">
              <mxPoint x="690" y="270" />
              <mxPoint x="690" y="830" />
            </Array>
          </mxGeometry>
        </mxCell>
        <mxCell id="KRBgAvv1zdZQbNrioahp-3" value="&lt;font style=&quot;font-size: 16px;&quot;&gt;是否符合硬件&lt;br&gt;预期性能&lt;/font&gt;" style="rhombus;whiteSpace=wrap;html=1;" vertex="1" parent="1">
          <mxGeometry x="340" y="230" width="150" height="80" as="geometry" />
        </mxCell>
        <mxCell id="KRBgAvv1zdZQbNrioahp-20" style="edgeStyle=orthogonalEdgeStyle;rounded=0;orthogonalLoop=1;jettySize=auto;html=1;exitX=0.5;exitY=1;exitDx=0;exitDy=0;entryX=0.5;entryY=0;entryDx=0;entryDy=0;" edge="1" parent="1" source="KRBgAvv1zdZQbNrioahp-4" target="KRBgAvv1zdZQbNrioahp-5">
          <mxGeometry relative="1" as="geometry" />
        </mxCell>
        <mxCell id="KRBgAvv1zdZQbNrioahp-25" style="edgeStyle=orthogonalEdgeStyle;rounded=0;orthogonalLoop=1;jettySize=auto;html=1;exitX=1;exitY=0.5;exitDx=0;exitDy=0;entryX=1;entryY=0.5;entryDx=0;entryDy=0;" edge="1" parent="1" source="KRBgAvv1zdZQbNrioahp-4" target="KRBgAvv1zdZQbNrioahp-13">
          <mxGeometry relative="1" as="geometry">
            <Array as="points">
              <mxPoint x="690" y="390" />
              <mxPoint x="690" y="830" />
            </Array>
          </mxGeometry>
        </mxCell>
        <mxCell id="KRBgAvv1zdZQbNrioahp-4" value="&lt;font style=&quot;font-size: 16px;&quot;&gt;热点函数&lt;br&gt;是否在JDK中&lt;/font&gt;" style="rhombus;whiteSpace=wrap;html=1;" vertex="1" parent="1">
          <mxGeometry x="340" y="350" width="150" height="80" as="geometry" />
        </mxCell>
        <mxCell id="KRBgAvv1zdZQbNrioahp-11" style="edgeStyle=orthogonalEdgeStyle;rounded=0;orthogonalLoop=1;jettySize=auto;html=1;exitX=0;exitY=0.5;exitDx=0;exitDy=0;entryX=0.5;entryY=0;entryDx=0;entryDy=0;" edge="1" parent="1" source="KRBgAvv1zdZQbNrioahp-5" target="KRBgAvv1zdZQbNrioahp-8">
          <mxGeometry relative="1" as="geometry" />
        </mxCell>
        <mxCell id="KRBgAvv1zdZQbNrioahp-16" style="edgeStyle=orthogonalEdgeStyle;rounded=0;orthogonalLoop=1;jettySize=auto;html=1;exitX=1;exitY=0.5;exitDx=0;exitDy=0;entryX=0.5;entryY=0;entryDx=0;entryDy=0;" edge="1" parent="1" source="KRBgAvv1zdZQbNrioahp-5" target="KRBgAvv1zdZQbNrioahp-15">
          <mxGeometry relative="1" as="geometry" />
        </mxCell>
        <mxCell id="KRBgAvv1zdZQbNrioahp-19" style="edgeStyle=orthogonalEdgeStyle;rounded=0;orthogonalLoop=1;jettySize=auto;html=1;exitX=0.5;exitY=1;exitDx=0;exitDy=0;entryX=0.5;entryY=0;entryDx=0;entryDy=0;" edge="1" parent="1" source="KRBgAvv1zdZQbNrioahp-5" target="KRBgAvv1zdZQbNrioahp-6">
          <mxGeometry relative="1" as="geometry" />
        </mxCell>
        <mxCell id="KRBgAvv1zdZQbNrioahp-5" value="&lt;font style=&quot;font-size: 16px;&quot;&gt;代码相比其他&lt;br&gt;架构是否相同&lt;/font&gt;" style="rhombus;whiteSpace=wrap;html=1;" vertex="1" parent="1">
          <mxGeometry x="340" y="460" width="150" height="80" as="geometry" />
        </mxCell>
        <mxCell id="KRBgAvv1zdZQbNrioahp-18" style="edgeStyle=orthogonalEdgeStyle;rounded=0;orthogonalLoop=1;jettySize=auto;html=1;exitX=0.5;exitY=1;exitDx=0;exitDy=0;entryX=0.5;entryY=0;entryDx=0;entryDy=0;" edge="1" parent="1" source="KRBgAvv1zdZQbNrioahp-6" target="KRBgAvv1zdZQbNrioahp-7">
          <mxGeometry relative="1" as="geometry" />
        </mxCell>
        <mxCell id="KRBgAvv1zdZQbNrioahp-26" style="edgeStyle=orthogonalEdgeStyle;rounded=0;orthogonalLoop=1;jettySize=auto;html=1;exitX=0;exitY=0.5;exitDx=0;exitDy=0;entryX=0.5;entryY=0;entryDx=0;entryDy=0;" edge="1" parent="1" source="KRBgAvv1zdZQbNrioahp-6" target="KRBgAvv1zdZQbNrioahp-8">
          <mxGeometry relative="1" as="geometry">
            <Array as="points">
              <mxPoint x="305" y="620" />
              <mxPoint x="305" y="500" />
              <mxPoint x="210" y="500" />
            </Array>
          </mxGeometry>
        </mxCell>
        <mxCell id="KRBgAvv1zdZQbNrioahp-6" value="&lt;font style=&quot;font-size: 16px;&quot;&gt;能否用&lt;br&gt;多条指令模拟或&lt;br&gt;设计其他算法&lt;/font&gt;" style="rhombus;whiteSpace=wrap;html=1;" vertex="1" parent="1">
          <mxGeometry x="339" y="570" width="150" height="100" as="geometry" />
        </mxCell>
        <mxCell id="KRBgAvv1zdZQbNrioahp-14" style="edgeStyle=orthogonalEdgeStyle;rounded=0;orthogonalLoop=1;jettySize=auto;html=1;exitX=0.5;exitY=1;exitDx=0;exitDy=0;entryX=0.5;entryY=0;entryDx=0;entryDy=0;" edge="1" parent="1" source="KRBgAvv1zdZQbNrioahp-7" target="KRBgAvv1zdZQbNrioahp-13">
          <mxGeometry relative="1" as="geometry" />
        </mxCell>
        <mxCell id="KRBgAvv1zdZQbNrioahp-7" value="&lt;font style=&quot;font-size: 16px;&quot;&gt;反馈芯片设计部门&lt;/font&gt;" style="rounded=0;whiteSpace=wrap;html=1;" vertex="1" parent="1">
          <mxGeometry x="354" y="700" width="120" height="60" as="geometry" />
        </mxCell>
        <mxCell id="KRBgAvv1zdZQbNrioahp-8" value="&lt;font style=&quot;font-size: 16px;&quot;&gt;设计算法&lt;/font&gt;" style="rounded=0;whiteSpace=wrap;html=1;" vertex="1" parent="1">
          <mxGeometry x="150" y="530" width="120" height="60" as="geometry" />
        </mxCell>
        <mxCell id="KRBgAvv1zdZQbNrioahp-9" value="&lt;span style=&quot;font-size: 16px;&quot;&gt;编写向量化或标量代码&lt;/span&gt;" style="rounded=0;whiteSpace=wrap;html=1;" vertex="1" parent="1">
          <mxGeometry x="150" y="620" width="120" height="60" as="geometry" />
        </mxCell>
        <mxCell id="KRBgAvv1zdZQbNrioahp-12" style="edgeStyle=orthogonalEdgeStyle;rounded=0;orthogonalLoop=1;jettySize=auto;html=1;exitX=0.5;exitY=1;exitDx=0;exitDy=0;entryX=0.5;entryY=0;entryDx=0;entryDy=0;" edge="1" parent="1" source="KRBgAvv1zdZQbNrioahp-10" target="KRBgAvv1zdZQbNrioahp-2">
          <mxGeometry relative="1" as="geometry">
            <Array as="points">
              <mxPoint x="210" y="790" />
              <mxPoint x="120" y="790" />
              <mxPoint x="120" y="120" />
              <mxPoint x="414" y="120" />
            </Array>
          </mxGeometry>
        </mxCell>
        <mxCell id="KRBgAvv1zdZQbNrioahp-10" value="&lt;span style=&quot;font-size: 16px;&quot;&gt;应用在编译器中&lt;/span&gt;" style="rounded=0;whiteSpace=wrap;html=1;" vertex="1" parent="1">
          <mxGeometry x="150" y="710" width="120" height="60" as="geometry" />
        </mxCell>
        <mxCell id="KRBgAvv1zdZQbNrioahp-13" value="&lt;font style=&quot;font-size: 16px;&quot;&gt;结束&lt;/font&gt;" style="rounded=1;whiteSpace=wrap;html=1;" vertex="1" parent="1">
          <mxGeometry x="368" y="810" width="94" height="40" as="geometry" />
        </mxCell>
        <mxCell id="KRBgAvv1zdZQbNrioahp-17" style="edgeStyle=orthogonalEdgeStyle;rounded=0;orthogonalLoop=1;jettySize=auto;html=1;exitX=0.5;exitY=1;exitDx=0;exitDy=0;entryX=1;entryY=0.5;entryDx=0;entryDy=0;" edge="1" parent="1" source="KRBgAvv1zdZQbNrioahp-15" target="KRBgAvv1zdZQbNrioahp-7">
          <mxGeometry relative="1" as="geometry" />
        </mxCell>
        <mxCell id="KRBgAvv1zdZQbNrioahp-15" value="&lt;font style=&quot;font-size: 16px;&quot;&gt;结合微架构知识&lt;br&gt;分析底层原因&lt;/font&gt;" style="rounded=0;whiteSpace=wrap;html=1;" vertex="1" parent="1">
          <mxGeometry x="540" y="570" width="120" height="60" as="geometry" />
        </mxCell>
      </root>
    </mxGraphModel>
  </diagram>
</mxfile>
